<svg width="512" height="512" viewBox="0 0 256 256" xmlns="http://www.w3.org/2000/svg">
    <rect width="256" height="256" fill="#0f172a" />
    <defs>
        <radialGradient id="coinGrad" cx="50%" cy="50%" r="50%" fx="35%" fy="35%">
            <stop offset="0%" style="stop-color:#f1f5f9;stop-opacity:1" />
            <stop offset="40%" style="stop-color:#cbd5e1;stop-opacity:1" />
            <stop offset="85%" style="stop-color:#64748b;stop-opacity:1" />
            <stop offset="100%" style="stop-color:#1e293b;stop-opacity:1" />
        </radialGradient>
        <filter id="metalRelief">
            <feGaussianBlur in="SourceAlpha" stdDeviation="2" result="blur" />
            <feSpecularLighting in="blur" surfaceScale="5" specularConstant="0.8" specularExponent="20" lighting-color="#ffffff" result="specOut">
                <fePointLight x="-5000" y="-10000" z="20000" />
            </feSpecularLighting>
            <feComposite in="specOut" in2="SourceAlpha" operator="in" result="specOut" />
            <feComposite in="SourceGraphic" in2="specOut" operator="arithmetic" k1="0" k2="1" k3="1" k4="0" />
        </filter>
    </defs>
    <g transform="translate(16, 16) scale(0.875)">
        <circle cx="128" cy="128" r="120" fill="url(#coinGrad)" stroke="#475569" stroke-width="2" />
        <path d="M128,40 c-30,0 -50,25 -50,60 c0,40 20,60 50,85 c5,5 15,10 15,25 l0,15 l35,0 l0,-20 c0,-15 -10,-25 -20,-35 c-20,-20 -30,-35 -30,-70 c0,-25 15,-40 35,-40 c20,0 35,15 35,40 c0,35 -10,50 -30,70" fill="#94a3b8" filter="url(#metalRelief)" opacity="0.9" />
        <circle cx="128" cy="128" r="115" fill="none" stroke="#ffffff" stroke-width="1" stroke-dasharray="2,4" opacity="0.3" />
    </g>
</svg>
